<mxfile host="app.diagrams.net" modified="2021-04-19T11:34:39.560Z" agent="5.0 (Windows NT 10.0; WOW64) AppleWebKit/537.36 (KHTML, like Gecko) Chrome/86.0.4240.198 Safari/537.36" etag="Etp2k8b1T38prWdVcm6x" version="14.6.2" type="github">
  <diagram id="DMQqjgYefjVSN_3mJzKR" name="Page-1">
    <mxGraphModel dx="1422" dy="746" grid="1" gridSize="10" guides="1" tooltips="1" connect="1" arrows="1" fold="1" page="1" pageScale="1" pageWidth="827" pageHeight="1169" math="0" shadow="0">
      <root>
        <mxCell id="0" />
        <mxCell id="1" parent="0" />
        <mxCell id="kzOSEtPjUSbWI9TXHq0k-1" value="" style="ellipse;whiteSpace=wrap;html=1;" vertex="1" parent="1">
          <mxGeometry x="100" y="90" width="120" height="80" as="geometry" />
        </mxCell>
        <mxCell id="kzOSEtPjUSbWI9TXHq0k-2" value="" style="shape=cube;whiteSpace=wrap;html=1;boundedLbl=1;backgroundOutline=1;darkOpacity=0.05;darkOpacity2=0.1;" vertex="1" parent="1">
          <mxGeometry x="320" y="100" width="120" height="80" as="geometry" />
        </mxCell>
        <mxCell id="kzOSEtPjUSbWI9TXHq0k-3" value="" style="shape=cube;whiteSpace=wrap;html=1;boundedLbl=1;backgroundOutline=1;darkOpacity=0.05;darkOpacity2=0.1;" vertex="1" parent="1">
          <mxGeometry x="340" y="140" width="120" height="80" as="geometry" />
        </mxCell>
        <mxCell id="kzOSEtPjUSbWI9TXHq0k-4" value="" style="shape=cube;whiteSpace=wrap;html=1;boundedLbl=1;backgroundOutline=1;darkOpacity=0.05;darkOpacity2=0.1;" vertex="1" parent="1">
          <mxGeometry x="360" y="180" width="120" height="80" as="geometry" />
        </mxCell>
        <mxCell id="kzOSEtPjUSbWI9TXHq0k-5" value="" style="curved=1;endArrow=classic;html=1;exitX=0.392;exitY=0.988;exitDx=0;exitDy=0;exitPerimeter=0;entryX=0;entryY=0;entryDx=70;entryDy=80;entryPerimeter=0;" edge="1" parent="1" source="kzOSEtPjUSbWI9TXHq0k-1" target="kzOSEtPjUSbWI9TXHq0k-4">
          <mxGeometry width="50" height="50" relative="1" as="geometry">
            <mxPoint x="390" y="380" as="sourcePoint" />
            <mxPoint x="440" y="330" as="targetPoint" />
            <Array as="points">
              <mxPoint x="200" y="350" />
              <mxPoint x="390" y="330" />
            </Array>
          </mxGeometry>
        </mxCell>
        <mxCell id="kzOSEtPjUSbWI9TXHq0k-6" value="" style="html=1;shadow=0;dashed=0;align=center;verticalAlign=middle;shape=mxgraph.arrows2.arrow;dy=0.6;dx=40;direction=north;notch=0;rotation=90;" vertex="1" parent="1">
          <mxGeometry x="520" y="170" width="70" height="100" as="geometry" />
        </mxCell>
        <mxCell id="kzOSEtPjUSbWI9TXHq0k-7" value="" style="strokeWidth=2;html=1;shape=mxgraph.flowchart.multi-document;whiteSpace=wrap;" vertex="1" parent="1">
          <mxGeometry x="310" y="360" width="88" height="60" as="geometry" />
        </mxCell>
        <mxCell id="kzOSEtPjUSbWI9TXHq0k-8" value="Associative&#xa;Entity" style="shape=associativeEntity;whiteSpace=wrap;html=1;align=center;" vertex="1" parent="1">
          <mxGeometry x="320" y="440" width="140" height="60" as="geometry" />
        </mxCell>
        <mxCell id="kzOSEtPjUSbWI9TXHq0k-9" value="" style="rounded=1;absoluteArcSize=1;html=1;arcSize=10;" vertex="1" parent="1">
          <mxGeometry x="530" y="410" width="100" height="100" as="geometry" />
        </mxCell>
        <mxCell id="kzOSEtPjUSbWI9TXHq0k-10" value="main" style="html=1;shape=mxgraph.er.anchor;whiteSpace=wrap;" vertex="1" parent="kzOSEtPjUSbWI9TXHq0k-9">
          <mxGeometry width="50" height="100" as="geometry" />
        </mxCell>
        <mxCell id="kzOSEtPjUSbWI9TXHq0k-11" value="sub" style="rounded=1;absoluteArcSize=1;html=1;arcSize=10;whiteSpace=wrap;points=[];strokeColor=inherit;fillColor=inherit;" vertex="1" parent="kzOSEtPjUSbWI9TXHq0k-9">
          <mxGeometry x="50" y="5" width="45" height="90" as="geometry" />
        </mxCell>
        <mxCell id="kzOSEtPjUSbWI9TXHq0k-12" value="" style="edgeStyle=entityRelationEdgeStyle;fontSize=12;html=1;endArrow=ERmandOne;startArrow=ERmandOne;" edge="1" parent="1">
          <mxGeometry width="100" height="100" relative="1" as="geometry">
            <mxPoint x="360" y="710" as="sourcePoint" />
            <mxPoint x="460" y="610" as="targetPoint" />
          </mxGeometry>
        </mxCell>
        <mxCell id="kzOSEtPjUSbWI9TXHq0k-13" value="" style="edgeStyle=entityRelationEdgeStyle;fontSize=12;html=1;endArrow=ERmandOne;startArrow=ERmandOne;" edge="1" parent="1" source="kzOSEtPjUSbWI9TXHq0k-8" target="kzOSEtPjUSbWI9TXHq0k-10">
          <mxGeometry width="100" height="100" relative="1" as="geometry">
            <mxPoint x="360" y="710" as="sourcePoint" />
            <mxPoint x="460" y="610" as="targetPoint" />
          </mxGeometry>
        </mxCell>
        <mxCell id="kzOSEtPjUSbWI9TXHq0k-14" value="" style="ellipse;html=1;shape=endState;fillColor=#000000;strokeColor=#ff0000;" vertex="1" parent="1">
          <mxGeometry x="48" y="540" width="350" height="290" as="geometry" />
        </mxCell>
        <mxCell id="kzOSEtPjUSbWI9TXHq0k-15" value="dispatch" style="html=1;verticalAlign=bottom;startArrow=circle;startFill=1;endArrow=open;startSize=6;endSize=8;" edge="1" parent="1">
          <mxGeometry width="80" relative="1" as="geometry">
            <mxPoint x="370" y="660" as="sourcePoint" />
            <mxPoint x="780" y="660" as="targetPoint" />
            <Array as="points">
              <mxPoint x="640" y="750" />
            </Array>
          </mxGeometry>
        </mxCell>
        <mxCell id="kzOSEtPjUSbWI9TXHq0k-16" value="" style="verticalLabelPosition=bottom;html=1;verticalAlign=top;strokeWidth=1;align=center;outlineConnect=0;dashed=0;outlineConnect=0;shape=mxgraph.aws3d.flatEdge;fillColor=#000000;aspect=fixed;" vertex="1" parent="1">
          <mxGeometry x="310" y="860" width="63.2" height="36" as="geometry" />
        </mxCell>
        <mxCell id="kzOSEtPjUSbWI9TXHq0k-17" value="" style="verticalLabelPosition=bottom;html=1;verticalAlign=top;strokeWidth=1;align=center;outlineConnect=0;dashed=0;outlineConnect=0;shape=mxgraph.aws3d.reference;aspect=fixed;" vertex="1" parent="1">
          <mxGeometry x="550" y="830" width="30" height="19.83" as="geometry" />
        </mxCell>
        <mxCell id="kzOSEtPjUSbWI9TXHq0k-18" value="" style="verticalLabelPosition=bottom;html=1;verticalAlign=top;strokeWidth=1;align=center;outlineConnect=0;dashed=0;outlineConnect=0;shape=mxgraph.aws3d.application;fillColor=#4286c5;strokeColor=#57A2D8;aspect=fixed;" vertex="1" parent="1">
          <mxGeometry x="524" y="540" width="66" height="73.24" as="geometry" />
        </mxCell>
        <mxCell id="kzOSEtPjUSbWI9TXHq0k-19" value="Text" style="text;html=1;resizable=0;autosize=1;align=center;verticalAlign=middle;points=[];fillColor=none;strokeColor=none;rounded=0;" vertex="1" parent="1">
          <mxGeometry x="90" y="440" width="40" height="20" as="geometry" />
        </mxCell>
        <mxCell id="kzOSEtPjUSbWI9TXHq0k-20" value="" style="points=[[0,0,0],[0.25,0,0],[0.5,0,0],[0.75,0,0],[1,0,0],[0,1,0],[0.25,1,0],[0.5,1,0],[0.75,1,0],[1,1,0],[0,0.25,0],[0,0.5,0],[0,0.75,0],[1,0.25,0],[1,0.5,0],[1,0.75,0]];outlineConnect=0;fontColor=#232F3E;gradientColor=#945DF2;gradientDirection=north;fillColor=#5A30B5;strokeColor=#ffffff;dashed=0;verticalLabelPosition=bottom;verticalAlign=top;align=center;html=1;fontSize=12;fontStyle=0;aspect=fixed;shape=mxgraph.aws4.resourceIcon;resIcon=mxgraph.aws4.game_tech2;" vertex="1" parent="1">
          <mxGeometry x="142" y="849.83" width="78" height="78" as="geometry" />
        </mxCell>
      </root>
    </mxGraphModel>
  </diagram>
</mxfile>
